<?xml version="1.0" standalone="no"?>
<!DOCTYPE svg PUBLIC "-//W3C//DTD SVG 20010904//EN" "http://www.w3.org/TR/2001/REC-SVG-20010904/DTD/svg10.dtd">
<svg version="1.0" xmlns="http://www.w3.org/2000/svg" width="525.000000pt" height="177.000000pt" viewBox="0 0 525.000000 177.000000" preserveAspectRatio="xMidYMid meet">
  <g transform="translate(0.000000,177.000000) scale(0.100000,-0.100000)" fill="#000000" stroke="none">
    <path d="M2260 860 c0 -267 3 -410 10 -410 7 0 10 143 10 410 0 267 -3 410 -10 410 -7 0 -10 -143 -10 -410z"/>
<path d="M591 1030 c76 -83 117 -110 169 -110 46 0 77 20 165 109 l80 81 -35
0 c-29 0 -45 -10 -100 -65 -50 -50 -75 -67 -103 -72 -35 -5 -40 -2 -110 66
-60 58 -79 71 -106 71 l-32 0 72 -80z"/>
<path d="M1137 1103 c-4 -3 -7 -98 -7 -210 l0 -203 30 0 30 0 0 80 0 80 61 0
c67 0 68 -1 159 -108 41 -48 49 -53 79 -50 l34 3 -76 90 c-97 113 -115 125
-194 125 l-63 0 0 75 0 75 85 0 c126 0 165 -28 149 -107 -8 -42 18 -63 40 -31
23 32 20 100 -5 132 -37 47 -68 56 -197 56 -65 0 -122 -3 -125 -7z"/>
<path d="M1670 900 l0 -210 30 0 30 0 0 85 0 85 106 0 106 0 39 39 c34 33 39
45 39 83 0 31 -7 54 -21 72 -38 48 -67 56 -204 56 l-125 0 0 -210z m254 149
c37 -17 51 -60 32 -97 -20 -39 -31 -42 -137 -42 l-89 0 0 75 0 75 85 0 c46 0
95 -5 109 -11z"/>
<path d="M2670 930 l0 -130 85 0 c78 0 85 2 85 20 0 18 -7 20 -65 20 l-65 0 0
110 c0 103 -1 110 -20 110 -19 0 -20 -7 -20 -130z"/>
<path d="M3800 930 l0 -130 85 0 c78 0 85 2 85 20 0 18 -7 20 -65 20 l-65 0 0
110 c0 103 -1 110 -20 110 -19 0 -20 -7 -20 -130z"/>
<path d="M4360 930 c0 -123 1 -130 20 -130 17 0 20 7 20 39 0 57 15 58 45 6
20 -34 33 -45 51 -45 13 0 24 2 24 5 0 3 -16 29 -35 58 l-35 51 37 38 37 38
-29 0 c-19 0 -40 -11 -62 -32 l-33 -32 0 67 c0 60 -2 67 -20 67 -19 0 -20 -7
-20 -130z"/>
<path d="M2881 966 c-50 -53 -32 -144 32 -165 38 -13 62 -7 95 22 26 24 28 33
5 41 -10 4 -23 -1 -35 -14 -21 -23 -48 -26 -66 -8 -28 28 -13 38 54 38 l67 0
-6 38 c-4 20 -16 45 -28 55 -31 25 -91 22 -118 -7z m87 -18 c21 -21 13 -28
-28 -28 -42 0 -52 12 -22 29 23 14 36 13 50 -1z"/>
<path d="M3071 966 c-32 -34 -29 -108 5 -142 20 -20 33 -25 60 -22 35 4 44 -8
22 -30 -16 -16 -43 -15 -58 3 -13 16 -50 21 -50 6 0 -5 8 -19 18 -31 25 -31
95 -32 125 -1 19 19 22 35 25 130 l4 108 -65 1 c-55 1 -67 -2 -86 -22z m90
-22 c19 -24 16 -84 -5 -99 -34 -25 -66 0 -66 52 0 52 43 81 71 47z"/>
<path d="M3267 972 c-10 -10 -17 -23 -17 -29 0 -20 27 -21 43 -2 19 22 47 25
65 7 20 -20 14 -26 -34 -34 -88 -13 -114 -77 -46 -113 17 -9 31 -10 53 -2 17
6 42 8 57 5 l27 -6 -5 87 c-6 98 -11 105 -81 105 -32 0 -51 -6 -62 -18z m103
-101 c0 -18 -32 -41 -56 -41 -17 0 -24 6 -24 19 0 11 6 22 13 24 21 9 67 7 67
-2z"/>
<path d="M3461 964 c-28 -35 -28 -102 -1 -137 39 -49 106 -43 135 13 15 30 15
30 -10 30 -15 0 -25 -6 -25 -14 0 -13 -20 -26 -40 -26 -19 0 -40 34 -40 65 0
56 47 86 72 45 7 -11 18 -20 25 -20 21 0 25 20 9 45 -13 20 -25 25 -61 25 -35
0 -47 -5 -64 -26z"/>
<path d="M3621 938 c56 -139 59 -168 19 -168 -22 0 -29 -35 -7 -43 19 -7 53 9
62 30 15 37 85 226 85 229 0 2 -9 4 -19 4 -15 0 -25 -15 -42 -60 -12 -34 -25
-57 -29 -53 -4 4 -15 32 -25 61 -14 44 -20 52 -41 52 l-24 0 21 -52z"/>
<path d="M4010 972 c-26 -21 -36 -85 -21 -125 7 -17 24 -34 46 -43 30 -12 39
-12 69 0 19 8 40 24 46 37 18 33 7 110 -20 131 -29 23 -91 23 -120 0z m94 -34
c9 -12 16 -32 16 -43 0 -29 -28 -65 -50 -65 -22 0 -50 36 -50 65 0 29 28 65
50 65 10 0 26 -10 34 -22z"/>
<path d="M4201 964 c-51 -65 -11 -168 64 -168 38 0 75 29 75 60 0 21 -33 17
-48 -6 -25 -41 -72 -11 -72 45 0 56 47 86 72 45 7 -11 18 -20 25 -20 21 0 25
20 9 45 -13 20 -25 25 -61 25 -35 0 -47 -5 -64 -26z"/>
<path d="M4555 965 c-20 -19 -25 -34 -25 -73 0 -50 20 -80 64 -96 26 -9 84 11
96 34 13 25 13 27 -6 34 -11 4 -22 -1 -31 -14 -17 -24 -46 -26 -67 -4 -28 27
-18 34 49 34 l65 0 0 30 c0 44 -39 80 -85 80 -25 0 -44 -8 -60 -25z m91 -22
c17 -17 17 -18 -9 -21 -15 -2 -37 -2 -49 0 -21 3 -21 4 -4 21 10 9 24 17 31
17 7 0 21 -8 31 -17z"/>
<path d="M4730 894 c0 -87 1 -94 20 -94 18 0 20 7 20 59 0 75 6 91 35 91 22 0
42 25 27 34 -4 2 -29 4 -55 4 l-47 0 0 -94z"/>
<path d="M685 861 c-16 -10 -64 -53 -105 -95 l-74 -76 38 0 c35 0 47 8 112 70
59 57 78 70 104 70 26 0 45 -13 104 -70 61 -59 78 -70 107 -70 l34 0 -96 95
c-95 94 -97 95 -145 95 -31 0 -60 -7 -79 -19z"/>
  <path xmlns="http://www.w3.org/2000/svg" d="M0 0h0v0h0" id="ReactComponent" />
  </g>
</svg>